<?xml version="1.0" standalone="no"?>
<!DOCTYPE svg PUBLIC "-//W3C//DTD SVG 20010904//EN"
 "http://www.w3.org/TR/2001/REC-SVG-20010904/DTD/svg10.dtd">
<svg version="1.0" xmlns="http://www.w3.org/2000/svg"
 width="376.000000pt" height="147.000000pt" viewBox="0 0 376.000000 147.000000"
 preserveAspectRatio="xMidYMid meet">

<g transform="translate(0.000000,147.000000) scale(0.100000,-0.100000)"
fill="#000000" stroke="none">
<path d="M2045 1210 c-260 -20 -447 -98 -471 -196 -11 -43 23 -193 63 -274 45
-93 158 -210 248 -257 223 -117 483 -89 681 73 98 81 177 224 197 357 10 71
13 77 34 77 39 0 100 -37 123 -75 31 -50 30 -124 -1 -169 -27 -40 -63 -63
-115 -74 -29 -6 -39 -13 -39 -27 0 -32 51 -30 115 2 64 33 109 96 117 166 6
52 -24 131 -65 170 -29 28 -99 57 -136 57 -12 0 -39 16 -60 35 -54 50 -131 81
-264 109 -131 27 -292 37 -427 26z m464 -84 c117 -33 186 -69 201 -106 17 -41
-3 -65 -85 -105 -210 -101 -632 -107 -877 -13 -69 26 -128 71 -128 97 0 35 82
90 175 116 133 38 195 44 410 41 190 -4 219 -6 304 -30z m-781 -271 c35 -15
93 -33 130 -41 94 -22 405 -30 529 -14 95 12 230 48 286 76 26 14 27 13 27
-10 0 -13 -18 -59 -39 -102 -100 -199 -310 -318 -530 -301 -127 10 -241 60
-335 147 -62 58 -102 116 -132 193 -27 68 -30 92 -11 84 6 -3 40 -18 75 -32z"/>
<path d="M1977 1119 c-116 -13 -272 -69 -193 -69 14 0 55 -7 93 -16 82 -19
181 -14 303 15 101 25 229 27 345 6 44 -8 81 -15 83 -15 2 0 1 4 -3 9 -11 18
-162 61 -250 71 -103 11 -278 11 -378 -1z"/>
<path d="M2260 1014 c-14 -3 -47 -13 -75 -22 -40 -14 -86 -17 -227 -16 -112 0
-181 4 -190 11 -12 10 -42 17 -61 14 -4 0 -3 -10 3 -21 16 -30 96 -66 191 -87
118 -25 430 -26 544 0 84 18 169 55 167 72 -2 28 -269 65 -352 49z"/>
<path d="M1743 789 c-30 -30 83 -163 186 -217 86 -46 153 -62 261 -62 70 0
102 4 116 15 29 22 4 32 -61 25 -201 -22 -380 66 -480 234 -8 13 -13 15 -22 5z"/>
<path d="M2497 653 c-36 -28 -45 -47 -28 -57 12 -8 93 53 89 66 -7 21 -24 19
-61 -9z"/>
<path d="M933 924 c-13 -20 -16 -44 -14 -103 3 -96 21 -121 21 -29 0 52 3 67
17 72 14 6 14 8 -3 21 -19 15 -18 15 3 34 12 10 19 21 16 25 -12 11 -23 6 -40
-20z"/>
<path d="M1032 938 c-7 -7 -12 -19 -12 -28 0 -9 -6 -22 -12 -29 -10 -11 -10
-14 0 -18 8 -3 12 -26 12 -64 0 -33 4 -59 10 -59 6 0 10 26 10 58 0 32 5 63
12 70 9 9 9 12 0 12 -17 0 -15 40 3 46 8 4 15 10 15 15 0 13 -24 11 -38 -3z"/>
<path d="M636 858 c-48 -68 23 -167 79 -112 21 21 13 29 -14 12 -16 -9 -26
-10 -39 -2 -23 15 -28 77 -7 98 20 20 29 20 49 1 21 -21 29 -19 16 5 -15 28
-64 27 -84 -2z"/>
<path d="M777 862 c-24 -26 -22 -87 3 -112 44 -44 90 -12 90 63 0 36 -4 49
-19 57 -29 15 -56 12 -74 -8z m78 -35 c10 -37 -11 -77 -39 -77 -27 0 -36 16
-36 65 0 58 62 67 75 12z"/>
<path d="M1110 865 c-7 -9 -14 -36 -14 -61 -1 -35 4 -49 19 -60 22 -16 66 -15
72 2 2 7 -8 9 -26 6 -22 -3 -32 1 -40 16 -14 26 -6 32 41 32 32 0 38 3 38 21
0 53 -59 82 -90 44z m70 -30 c0 -10 -10 -15 -30 -15 -23 0 -30 5 -30 19 0 11
6 21 13 24 18 6 47 -11 47 -28z"/>
<path d="M1240 773 c0 -67 4 -102 10 -98 6 3 10 19 10 35 0 27 2 29 29 24 36
-8 51 15 51 79 0 53 -14 67 -63 65 l-37 -1 0 -104z m75 32 c0 -47 -2 -50 -25
-50 -23 0 -25 4 -28 53 -3 53 -3 53 25 50 27 -3 28 -6 28 -53z"/>
<path d="M1396 864 c-23 -22 -21 -96 2 -117 43 -39 92 -7 92 61 0 46 -20 72
-55 72 -13 0 -31 -7 -39 -16z m72 -62 c-3 -41 -6 -47 -27 -50 -29 -5 -41 12
-41 60 0 43 23 63 53 47 14 -8 17 -20 15 -57z"/>
</g>
</svg>
